Coordinates
version=1
nRows=24
nColumns=19
inDegrees=yes

Units are S.I. units (second, meters, Newtons, ...)
If the header above contains a line with 'inDegrees', this indicates whether rotational values are in degrees (yes) or radians (no).

endheader
time	pelvis_tilt	pelvis_list	pelvis_rotation	pelvis_tx	pelvis_ty	pelvis_tz	hip_flexion_r	hip_adduction_r	hip_rotation_r	knee_angle_r	knee_angle_r_beta	ankle_angle_r	hip_flexion_l	hip_adduction_l	hip_rotation_l	knee_angle_l	knee_angle_l_beta	ankle_angle_l
     17.44666667	      2.67930484	      6.05516186	      0.88229012	      2.29475106	      1.04183356	      0.98931819	    -14.34097694	    -10.04871962	     -6.44338972	     49.51299222	      0.86416474	    -19.35643035	     20.22395964	      9.40645798	     -1.85354530	     20.44555555	      0.35684226	      6.07557019
     17.45333333	      3.18237362	      6.49947141	      0.72107398	      2.29527792	      1.03751097	      0.98936502	    -13.93789866	    -10.76653848	     -6.03674865	     51.90673906	      0.90594350	    -18.12162620	     19.73614904	      9.79040331	     -2.67180332	     21.96402667	      0.38334458	      5.79298593
     17.46000000	      3.27536444	      6.95213338	      0.42387042	      2.29564868	      1.03255681	      0.98953277	    -12.92585461	    -11.52997542	     -5.38603985	     54.40935907	      0.94962246	    -16.73998323	     19.78986531	     10.12547268	     -3.68070622	     23.71742262	      0.41394711	      5.66375049
     17.46666667	      3.95931332	      7.44618949	      0.47703743	      2.29595389	      1.02813303	      0.98930549	    -12.78250631	    -12.27438731	     -5.33210478	     56.57352338	      0.98739425	    -15.22965429	     19.21984823	     10.66951661	     -4.15202924	     25.66598088	      0.44795587	      5.90227823
     17.47333333	      3.99847032	      8.05787635	      0.27070386	      2.29614900	      1.02285156	      0.98936695	    -11.67753703	    -13.28049123	     -4.96185353	     58.95914368	      1.02903118	    -13.66843781	     19.45845067	     11.22507962	     -4.98929029	     27.80249142	      0.48524502	      6.36554464
     17.48000000	      4.65576830	      8.61007375	      0.34254775	      2.29623876	      1.01834307	      0.98914894	    -11.45767381	    -14.15896343	     -5.06419038	     60.97150940	      1.06415359	    -12.00225016	     19.01369134	     11.88058090	     -5.26200657	     30.06365401	      0.52470975	      7.26519575
     17.48666667	      4.63969119	      9.24760667	      0.39722076	      2.29622956	      1.01299740	      0.98890128	    -10.32954289	    -15.24091407	     -5.09504783	     63.16160403	      1.10237795	    -10.25658607	     19.37065548	     12.60176801	     -5.61292319	     32.46132590	      0.56655702	      8.34794188
     17.49333333	      4.91297127	      9.77571437	      0.55312534	      2.29605802	      1.00820354	      0.98863517	     -9.57652530	    -16.18625964	     -5.30078880	     65.11378377	      1.13644992	     -8.49423840	     19.37673125	     13.29644914	     -5.61131264	     34.87654643	      0.60871057	      9.72901279
     17.50000000	      5.58131359	     10.29364198	      0.66022067	      2.29574891	      1.00406774	      0.98847393	     -9.26386245	    -17.14555754	     -5.59786035	     66.86854165	      1.16707622	     -6.74779353	     18.86232994	     14.00094666	     -5.50553310	     37.16607889	      0.64867045	     11.36953750
     17.50666667	      5.52555805	     10.85544668	      1.10164276	      2.29537596	      0.99928201	      0.98791541	     -8.14750336	    -18.26554770	     -6.22828241	     68.72199973	      1.19942516	     -4.89418604	     19.05280947	     14.88995181	     -5.00271660	     39.37257723	      0.68718111	     12.94925293
     17.51333333	      5.69779985	     11.22935947	      1.47256428	      2.29472860	      0.99514644	      0.98752214	     -7.21410446	    -19.14328261	     -6.72773950	     70.40105897	      1.22873028	     -3.08901118	     18.88595628	     15.57300911	     -4.42903271	     41.42001515	      0.72291564	     14.64340003
     17.52000000	      5.93918970	     11.56724818	      1.86087485	      2.29394655	      0.99144534	      0.98712103	     -6.32967956	    -20.04277617	     -7.32657010	     71.96004563	      1.25593973	     -1.32896908	     18.48500332	     16.24278932	     -3.73634086	     43.21100912	      0.75417438	     16.30522515
     17.52666667	      6.11561585	     11.78793286	      2.30326564	      2.29295037	      0.98811204	      0.98675688	     -5.32120081	    -20.79959611	     -7.90761902	     73.41671576	      1.28136342	      0.45259235	     17.98794761	     16.80175169	     -2.91412097	     44.74686295	      0.78098009	     17.90434568
     17.53333333	      6.30944700	     11.94050672	      2.72916096	      2.29181924	      0.98526186	      0.98642316	     -4.27450251	    -21.50025826	     -8.47075112	     74.74517815	      1.30454946	      2.18581149	     17.29612443	     17.27281356	     -2.05148850	     45.99001752	      0.80267723	     19.38625732
     17.54000000	      6.50560442	     11.99620662	      3.11663071	      2.29052734	      0.98287937	      0.98616925	     -3.15151280	    -22.08476532	     -8.94928415	     75.94287158	      1.32545315	      3.87755113	     16.43942012	     17.60222127	     -1.19882105	     46.95006936	      0.81943329	     20.74970156
     17.54666667	      6.81289830	     11.94605691	      3.34717493	      2.28914150	      0.98113743	      0.98613760	     -2.03653797	    -22.50247682	     -9.22065792	     76.97224544	      1.34341912	      5.53420365	     15.30542152	     17.71617392	     -0.51583730	     47.59669117	      0.83071897	     22.01606596
     17.55333333	      7.05929254	     11.82438604	      3.55929739	      2.28767380	      0.97982446	      0.98611645	     -0.80158853	    -22.84010219	     -9.46243073	     77.85006287	      1.35873992	      7.10568388	     14.09546783	     17.72463262	      0.16237461	     47.98366333	      0.83747291	     23.11676361
     17.56000000	      7.27748043	     11.63158556	      3.73025846	      2.28610730	      0.97897158	      0.98611789	      0.52279691	    -23.04741886	     -9.59639753	     78.55986019	      1.37112822	      8.58073514	     12.80006397	     17.61508948	      0.79040123	     48.13323115	      0.84008336	     24.04734705
     17.56666667	      7.43035826	     11.38705484	      3.85220800	      2.28467104	      0.97855254	      0.98612656	      1.93326978	    -23.18199867	     -9.69434859	     79.07458476	      1.38011186	     10.01259648	     11.44380827	     17.38983750	      1.28993454	     48.03260342	      0.83832708	     24.88919361
     17.57333333	      7.55130146	     11.08152772	      3.92367452	      2.28328615	      0.97860411	      0.98617971	      3.39441235	    -23.18310434	     -9.70833674	     79.38514784	      1.38553221	     11.30364484	     10.02548760	     17.05588578	      1.72010909	     47.71068161	      0.83270848	     25.55216828
     17.58000000	      7.64364220	     10.70705388	      3.87022371	      2.28197632	      0.97910332	      0.98632091	      4.90938610	    -23.08599046	     -9.65831317	     79.46660583	      1.38695392	     12.51137302	      8.57971183	     16.62681172	      2.05918128	     47.22130675	      0.82416728	     26.11953979
     17.58666667	      8.01984800	     10.26568333	      3.34639481	      2.28066680	      0.98025039	      0.98710189	      6.32551758	    -22.67063645	     -9.02873877	     79.38272741	      1.38548996	     13.59055577	      6.80241710	     15.95169775	      1.77739565	     46.49682006	      0.81152260	     26.60886321
     17.59333333	      8.19356302	      9.73840394	      3.08963884	      2.27956179	      0.98173374	      0.98744799	      7.73426902	    -22.18333444	     -8.77575857	     79.03073989	      1.37934662	     14.49089765	      5.14230099	     15.28713051	      1.84864661	     45.66627419	      0.79702684	     26.88503806
     17.60000000	      8.29172957	      9.12234711	      2.86576226	      2.27864837	      0.98362307	      0.98777889	      9.09848830	    -21.52380640	     -8.61225639	     78.41348964	      1.36857357	     15.27453680	      3.51132005	     14.53713068	      1.95253406	     44.72060190	      0.78052175	     27.08255684
